<svg xmlns="http://www.w3.org/2000/svg" width="100" height="100" viewBox="0 0 100 100"><defs><style>.a,.b,.c{fill:none;}.b,.c{stroke:#004c8e;stroke-width:2px;}.b{stroke-linecap:round;stroke-linejoin:round;}</style></defs><g transform="translate(-386.066 -1011.066)"><rect class="a" width="100" height="100" transform="translate(386.066 1011.066)"/><g transform="translate(391.168 1023.651)"><g transform="translate(0 0)"><path class="b" d="M422.314,1090.953l7.483-2.993L384.9,1070,340,1087.959l23.782,9.517,21.116,8.442,21.116-8.442,4.52-1.809" transform="translate(-340 -1070)"/><path class="b" d="M491.892,1246l2.993,16.463a40.533,40.533,0,0,1-50.885,0L446.993,1246" transform="translate(-424.544 -1213.075)"/><path class="b" d="M744,1358a8.558,8.558,0,0,0,4.49,0" transform="translate(-668.421 -1304.122)"/><path class="b" d="M738.735,1325.483l2.245,19.456a7.484,7.484,0,0,1-8.98,0l2.245-19.456a9.446,9.446,0,0,1-.748-4.086,3.017,3.017,0,1,1,5.986,0A9.446,9.446,0,0,1,738.735,1325.483Z" transform="translate(-658.666 -1271.605)"/><path class="b" d="M612.925,1187.932v-23.646L580,1158" transform="translate(-535.102 -1141.537)"/><path class="c" d="M417.824,1092.749l-7.289,2.919-4.52,1.809-21.116,8.442-21.116-8.442L340,1087.959,384.9,1070l44.9,17.959-7.483,2.993Z" transform="translate(-340 -1070)"/><path class="c" d="M738.735,1358l2.245,19.456a7.482,7.482,0,0,1-8.98,0L734.245,1358a8.558,8.558,0,0,0,4.49,0Z" transform="translate(-658.666 -1304.122)"/><path class="c" d="M745.986,1321.4a9.447,9.447,0,0,1-.748,4.086,8.555,8.555,0,0,1-4.49,0A9.447,9.447,0,0,1,740,1321.4a3.017,3.017,0,1,1,5.986,0Z" transform="translate(-665.17 -1271.605)"/><path class="c" d="M491.892,1222.324l2.993,16.463a40.533,40.533,0,0,1-50.885,0l2.993-16.463,1.333-5.449,21.116,8.442,21.116-8.442Z" transform="translate(-424.544 -1189.398)"/></g></g></g></svg>