<svg xmlns="http://www.w3.org/2000/svg" width="100" height="100" viewBox="0 0 100 100"><defs><style>.a,.c,.e{fill:none;}.b{fill:#f8f9fa;}.b,.c,.d,.e{stroke:#004c8e;stroke-width:2px;}.d{fill:#fff;}.e{stroke-linecap:round;stroke-linejoin:round;}</style></defs><g transform="translate(-386.066 -1011.066)"><rect class="a" width="100" height="100" transform="translate(386.066 1011.066)"/><g transform="translate(389.323 1023.67)"><g transform="translate(0 0)"><g transform="translate(35.838 12.465)"><path class="b" d="M778.778,3006a8.815,8.815,0,0,1,0,12.466h-6.762a8.815,8.815,0,0,0,0-12.466h6.762Z" transform="translate(-723.712 -2956.138)"/><path class="c" d="M580.32,2942a8.809,8.809,0,0,0,0,12.465h-7.791a8.815,8.815,0,0,1,0,12.466H532.016a8.815,8.815,0,0,0,0-12.466h17.14a8.809,8.809,0,0,1,0-12.465H580.32ZM566.3,2960.7v-12.466h-9.349V2960.7l4.675-3.117Z" transform="translate(-530.458 -2904.604)"/><path class="b" d="M706.778,2878a8.815,8.815,0,0,1,0,12.465h-6.762a8.815,8.815,0,0,0,0-12.465h6.762Z" transform="translate(-665.736 -2853.069)"/><path class="b" d="M562.892,2942h7.791a8.809,8.809,0,0,0,0,12.465h-9.349a8.809,8.809,0,0,1,0-12.465Z" transform="translate(-551.985 -2904.604)"/><path class="d" d="M547.389,2750c5.064,0,7.791,4.285,7.791,9.349,0,6.53-5.159,15.582-10.907,15.582h-9.349c-5.75,0-10.907-9.052-10.907-15.582,0-5.064,2.727-9.349,7.791-9.349s4.675,1.558,7.791,1.558h.015C542.714,2751.558,542.34,2750,547.389,2750Z" transform="translate(-524.016 -2750)"/></g><path class="e" d="M532.016,3006a8.815,8.815,0,0,1,0,12.466" transform="translate(-494.62 -2943.674)"/><path class="e" d="M396.111,3006H340.016a8.815,8.815,0,0,1,0,12.466h90.9a8.815,8.815,0,0,0,0-12.466H417.925" transform="translate(-340.016 -2943.674)"/><path class="e" d="M457.937,2942H382.615a8.809,8.809,0,0,0,0,12.465" transform="translate(-372.237 -2892.139)"/><path class="e" d="M609.334,2942a8.809,8.809,0,0,0,0,12.465" transform="translate(-554.798 -2892.139)"/><path class="e" d="M769.334,2942a8.809,8.809,0,0,0,0,12.465" transform="translate(-683.634 -2892.139)"/><line class="e" x1="18.698" transform="translate(15.582 56.094)"/><path class="e" d="M669.365,2986.466l-4.674-3.116-4.675,3.116V2974h9.349Z" transform="translate(-597.688 -2917.906)"/><path class="e" d="M420.016,2878a8.815,8.815,0,0,1,0,12.465" transform="translate(-404.434 -2840.605)"/><path class="e" d="M580.016,2878a8.815,8.815,0,0,1,0,12.465" transform="translate(-533.271 -2840.605)"/><path class="e" d="M481.314,2890.465a8.815,8.815,0,0,0,0-12.465h-61.3" transform="translate(-404.434 -2840.605)"/><line class="e" x2="10.907" transform="translate(56.094 43.628)"/><path class="e" d="M534.923,2774.931c-5.75,0-10.907-9.052-10.907-15.582,0-5.064,2.727-9.349,7.791-9.349s4.675,1.558,7.791,1.558h.015c3.1,0,2.727-1.558,7.776-1.558,5.064,0,7.791,4.285,7.791,9.349,0,6.53-5.159,15.582-10.907,15.582" transform="translate(-488.178 -2737.535)"/><path class="e" d="M556.436,2786.242a5.972,5.972,0,0,0-.42,2.29,11.97,11.97,0,0,0,1.044,4.487" transform="translate(-513.945 -2766.719)"/><path class="e" d="M605.263,2726.32a20.591,20.591,0,0,0-1.169,6.17" transform="translate(-552.659 -2718.467)"/><path class="e" d="M613.647,2694.641a20.48,20.48,0,0,0-3.476,6.17" transform="translate(-557.553 -2692.958)"/><path class="e" d="M547.239,2693.857a15.8,15.8,0,0,0-15.223-7.776" transform="translate(-494.62 -2686.005)"/><path class="e" d="M532.016,2686.4a11.688,11.688,0,0,0,15.207,7.776h.015" transform="translate(-494.62 -2686.321)"/></g></g></g></svg>