<svg xmlns="http://www.w3.org/2000/svg" width="100" height="100" viewBox="0 0 100 100"><defs><style>.a,.b,.c{fill:none;}.b,.c{stroke:#004c8e;stroke-width:2px;}.c{stroke-linecap:round;stroke-linejoin:round;}</style></defs><g transform="translate(-386.066 -1011.066)"><rect class="a" width="100" height="100" transform="translate(386.066 1011.066)"/><g transform="translate(389.323 1025.23)"><g transform="translate(0 0)"><path class="b" d="M3494.278,1922.181v-11.733c-8.2,1.137-20.1.966-28.046,2.555v17.139a115.862,115.862,0,0,1,14.428-1.479s4.332-.359,5.735-1.075c-.187,3.538-.764,7.168-2.494,9.115a3.968,3.968,0,0,1-1.823,1.23h-.015c-8.866.514-18.027,1.044-22.062,3.74v-65.439c7.4-4.939,32.065-2.6,40.51-6.232v44.281a8.236,8.236,0,0,1-1.792,5.688A7.229,7.229,0,0,1,3494.278,1922.181Z" transform="translate(-3413.257 -1870)"/><path class="b" d="M3220,1967.439V1902h6.233v59.207c8.444,3.63,33.109,1.293,40.51,6.232Z" transform="translate(-3220 -1895.768)"/><path class="b" d="M3482.078,1963.7a3.967,3.967,0,0,0,1.823-1.229c8.569-5.907,12.107-9.365,14.817-16.734a8.235,8.235,0,0,0,1.792-5.688V1902h6.232v65.439H3460c4.035-2.7,13.2-3.226,22.063-3.74Z" transform="translate(-3413.257 -1895.768)"/><path class="b" d="M3252,1870c8.445,3.63,33.11,1.293,40.51,6.232v65.439c-7.4-4.939-32.065-2.6-40.51-6.232V1870Zm34.278,35.212v-23.371c-7.945-1.588-19.85-1.418-28.045-2.555v23.371C3266.427,1903.794,3278.333,1903.624,3286.278,1905.212Z" transform="translate(-3245.768 -1870)"/><path class="c" d="M3313.485,1902v65.439H3220V1902" transform="translate(-3220 -1895.768)"/><line class="c" y2="64.992" transform="translate(46.743 6.485)"/><path class="c" d="M3252,1870v65.44c8.445,3.63,33.11,1.293,40.51,6.232,4.035-2.7,13.2-3.226,22.063-3.74" transform="translate(-3245.768 -1870)"/><path class="c" d="M3292.51,1876.232c-7.4-4.939-32.065-2.6-40.51-6.232" transform="translate(-3245.768 -1870)"/><path class="c" d="M3284,2085.68c8.195,1.137,20.1.966,28.046,2.555" transform="translate(-3271.535 -2043.674)"/><path class="c" d="M3284,2125.68c8.195,1.136,20.1.966,28.046,2.555" transform="translate(-3271.535 -2075.884)"/><path class="c" d="M3284,2165.68c8.195,1.136,20.1.966,28.046,2.555" transform="translate(-3271.535 -2108.093)"/><path class="c" d="M3500.51,1870c-8.445,3.63-33.109,1.293-40.51,6.232" transform="translate(-3413.257 -1870)"/><path class="c" d="M3492,1920.235c7.946-1.589,19.851-1.418,28.046-2.555" transform="translate(-3439.025 -1908.394)"/><path class="c" d="M3492,1960.234c7.946-1.588,19.851-1.418,28.046-2.555" transform="translate(-3439.025 -1940.603)"/><path class="c" d="M3492,2000.235c7.946-1.589,19.851-1.418,28.046-2.555" transform="translate(-3439.025 -1972.813)"/><path class="c" d="M3492,2040.235c7.946-1.589,19.851-1.418,28.046-2.555" transform="translate(-3439.025 -2005.022)"/><path class="c" d="M3595.6,1927.587c.108-2.245.077-4.457.077-6.17a19,19,0,0,0,7.791.764,7.228,7.228,0,0,0,4.44-2.212,8.236,8.236,0,0,0,1.792-5.688V1870" transform="translate(-3522.45 -1870)"/><path class="c" d="M3573.281,2176.025h.015a3.969,3.969,0,0,0,1.823-1.23c1.729-1.948,2.307-5.578,2.494-9.115" transform="translate(-3504.476 -2108.093)"/><path class="c" d="M3582.719,2143.3c8.569-5.907,12.107-9.365,14.817-16.734" transform="translate(-3512.076 -2076.594)"/><path class="c" d="M3284,1941.052c8.195,1.136,20.1.966,28.046,2.554v-23.371c-7.946-1.589-19.851-1.418-28.046-2.555Z" transform="translate(-3271.535 -1908.394)"/><path class="c" d="M3520.046,2083.18v-5.5c-8.2,1.137-20.1.966-28.046,2.555v17.139a115.772,115.772,0,0,1,14.428-1.479" transform="translate(-3439.025 -2037.232)"/></g></g></g></svg>