<svg xmlns="http://www.w3.org/2000/svg" width="100" height="100" viewBox="0 0 100 100"><defs><style>.a,.b,.c{fill:none;}.b,.c{stroke:#004c8e;stroke-width:2px;}.c{stroke-linecap:round;stroke-linejoin:round;}</style></defs><g transform="translate(-386.066 -1011.066)"><rect class="a" width="100" height="100" transform="translate(386.066 1011.066)"/><g transform="translate(394.002 1015.998)"><g transform="translate(0 0)"><g transform="translate(0 6.009)"><path class="b" d="M3632.019,1094v6.009H3620V1094h12.018Z" transform="translate(-3547.892 -1084.986)"/><path class="b" d="M3258.534,1088.064v-1.5h-13.521v12.018h13.521v-10.515ZM3254.027,1046H3299.1v84.127H3236V1046h18.027Zm4.507,75.113V1109.1h-13.521v12.018Zm0-45.068v-12.018h-13.521v12.018Z" transform="translate(-3236.001 -1046)"/></g><line class="c" x2="1.79" transform="translate(0.096 14.941)"/><line class="c" x2="1.79" transform="translate(7.258 14.941)"/><line class="c" x2="1.79" transform="translate(15.016 14.941)"/><line class="c" x2="1.79" transform="translate(22.177 14.941)"/><line class="c" x2="1.79" transform="translate(29.935 14.941)"/><line class="c" x2="1.194" transform="translate(37.693 14.941)"/><line class="c" x2="1.79" transform="translate(44.855 14.941)"/><line class="c" x2="1.79" transform="translate(52.613 14.941)"/><line class="c" x2="1.79" transform="translate(59.774 14.941)"/><path class="c" d="M3632.019,1123.1v1.5l-2.779,5.559-3.23,6.459-3.23-6.459-2.778-5.559V1057a3.014,3.014,0,0,1,3-3h6.009a3.014,3.014,0,0,1,3,3v66.1Z" transform="translate(-3547.892 -1046.489)"/><path class="c" d="M3634.8,1453.8a4.561,4.561,0,0,1,6.461,0" transform="translate(-3559.909 -1370.124)"/><path class="c" d="M3632.019,1409l-1.187-1.127a7.13,7.13,0,0,0-9.644,0L3620,1409" transform="translate(-3547.892 -1332.389)"/><path class="c" d="M3290.082,1046h9.014v84.127H3236V1046h54.081Z" transform="translate(-3236.001 -1039.991)"/><path class="c" d="M3428,1014v9.014" transform="translate(-3391.946 -1014)"/><path class="c" d="M3380,1014v9.014" transform="translate(-3352.959 -1014)"/><path class="c" d="M3332,1014v9.014" transform="translate(-3313.973 -1014)"/><path class="c" d="M3284,1014v9.014" transform="translate(-3274.986 -1014)"/><path class="c" d="M3476,1014v9.014" transform="translate(-3430.932 -1014)"/><path class="c" d="M3524,1014v9.014" transform="translate(-3469.918 -1014)"/><line class="c" x2="22.678" transform="translate(31.726 25.684)"/><line class="c" x2="13.129" transform="translate(31.726 34.635)"/><line class="c" x2="22.678" transform="translate(31.726 47.764)"/><line class="c" x2="13.129" transform="translate(31.726 57.313)"/><path class="c" d="M3308,1266.507l3,3,6.009-6.009,1.5-1.5" transform="translate(-3294.48 -1215.43)"/><path class="c" d="M3308,1266.507l3,3,6.009-6.009,1.5-1.5" transform="translate(-3294.48 -1237.656)"/></g></g></g></svg>