<svg xmlns="http://www.w3.org/2000/svg" width="24" height="24" viewBox="0 0 24 24"><defs><style>.a{fill:none;}.b{fill:#fff;}</style></defs><g transform="translate(-392 -114)"><rect class="a" width="24" height="24" transform="translate(392 114)"/><g transform="translate(395.196 117.195)"><path class="b" d="M10.364,5.838a4.518,4.518,0,1,0,4.518,4.518,4.517,4.517,0,0,0-4.518-4.518Zm0,7.45A2.932,2.932,0,1,1,13.3,10.356,2.931,2.931,0,0,1,10.364,13.288Z" transform="translate(-1.557 -1.555)"/><path class="b" d="M12.434.056C10.814-.02,6.8-.016,5.18.056A5.262,5.262,0,0,0,1.486,1.48C-.208,3.173.009,5.455.009,8.8c0,3.425-.191,5.654,1.477,7.321,1.7,1.7,4.015,1.477,7.321,1.477,3.392,0,4.563,0,5.763-.462,1.631-.633,2.862-2.091,2.982-4.709.076-1.621.072-5.632,0-7.254-.145-3.091-1.8-4.965-5.118-5.118ZM15,15c-1.11,1.11-2.65,1.011-6.213,1.011-3.668,0-5.139.054-6.213-1.022-1.236-1.23-1.012-3.206-1.012-6.2,0-4.053-.416-6.973,3.652-7.181.935-.033,1.21-.044,3.563-.044l.033.022c3.91,0,6.977-.409,7.161,3.658.042.928.051,1.207.051,3.556,0,3.626.068,5.106-1.023,6.2Z" transform="translate(0 0)"/><circle class="b" cx="1.056" cy="1.056" r="1.056" transform="translate(12.448 3.049)"/></g></g></svg>