<svg xmlns="http://www.w3.org/2000/svg" width="24" height="24" viewBox="0 0 24 24"><defs><style>.a{fill:none;}.b{fill:#fff;}</style></defs><g transform="translate(-392 -114)"><rect class="a" width="24" height="24" transform="translate(392 114)"/><g transform="translate(395.603 117.603)"><path class="b" d="M19.339,19.068h0V12.908c0-3.013-.649-5.334-4.171-5.334a3.657,3.657,0,0,0-3.294,1.81h-.049V7.855H8.489V19.068h3.478V13.516c0-1.462.277-2.875,2.087-2.875,1.784,0,1.81,1.668,1.81,2.969v5.459Z" transform="translate(-2.549 -2.274)"/><path class="b" d="M.4,7.977H3.878V19.189H.4Z" transform="translate(-0.119 -2.395)"/><path class="b" d="M2.017,0A2.026,2.026,0,1,0,4.033,2.017,2.017,2.017,0,0,0,2.017,0Z"/></g></g></svg>