<svg xmlns="http://www.w3.org/2000/svg" width="24" height="24" viewBox="0 0 24 24"><defs><style>.a{fill:none;}.b{fill:#fff;}</style></defs><g transform="translate(-392 -114)"><rect class="a" width="24" height="24" transform="translate(392 114)"/><g transform="translate(393.831 118.252)"><path class="b" d="M16.9,15H3.358A3.162,3.162,0,0,1,.217,12.2a45.843,45.843,0,0,1,0-8.909A3.162,3.162,0,0,1,3.358.5H16.915a3.165,3.165,0,0,1,3.139,2.782l.109.9a34.759,34.759,0,0,1,.023,6.751l-.144,1.259A3.161,3.161,0,0,1,16.9,15ZM3.358,1.881A1.782,1.782,0,0,0,1.588,3.454a44.2,44.2,0,0,0,0,8.587,1.782,1.782,0,0,0,1.769,1.574H16.9a1.781,1.781,0,0,0,1.77-1.579l.144-1.259a33.072,33.072,0,0,0-.022-6.428l-.109-.9a1.784,1.784,0,0,0-1.769-1.567Zm0,0" transform="translate(0)"/><path class="b" d="M208.039,124.544l-4.82-2.416v4.832Zm0,0" transform="translate(-195.146 -116.796)"/><path class="b" d="M186.538,110.962a.691.691,0,0,1-.69-.69V105.44a.69.69,0,0,1,1-.617l4.82,2.416a.69.69,0,0,1,0,1.233l-4.82,2.416a.685.685,0,0,1-.309.074Zm.69-4.4v2.6l2.589-1.3Zm0,0" transform="translate(-178.465 -100.108)"/></g></g></svg>